# xmcd CD database file
#
# Track frame offsets:
#	182
#	48557
#	87032
#	139157
#	207482
#	259570
#
# Disc length: 3786 seconds
#
# Revision: 0
# Processed by: cddbd v1.5PL3 Copyright (c) Steve Scherf et al.
# Submitted via: CDex 1.50
#
DISCID=500ec806
DTITLE=Charles Licata, Gary Peacok - Plain Talk
DYEAR=1900
DGENRE=Jazz
TTITLE0=Plain Talk
TTITLE1=Missy
TTITLE2=Conservatively Speaking
TTITLE3=Delayed Reaction
TTITLE4=McKinley Parkway
TTITLE5=But Even That's Relative
EXTD=
EXTT0=
EXTT1=
EXTT2=
EXTT3=
EXTT4=
EXTT5=
PLAYORDER=
